<svg xmlns="http://www.w3.org/2000/svg" viewBox="0 0 243.3 80.14"><title>RR_Hor_rgb</title><path d="M4.71,70.71V9.43H9.43V70.71Zm9.43-66V34.89A2.83,2.83,0,0,0,17,37.71H37.71a14.14,14.14,0,0,0,0-28.29H33v4.71h4.71a9.43,9.43,0,0,1,0,18.86H18.86V2.83A2.83,2.83,0,0,0,16,0H0V4.71ZM54.63,75.43,38.47,47.14h0A23.57,23.57,0,0,0,37.71,0H26.4a2.83,2.83,0,0,0-2.83,2.83V28.29h4.72V9.43h0V4.71h9.43a18.86,18.86,0,0,1,0,37.71H17a2.83,2.83,0,0,0-2.83,2.83V75.43H0v4.71H16a2.83,2.83,0,0,0,2.83-2.83V47.14H33L50.85,78.38a3.5,3.5,0,0,0,3,1.77H70.71V75.43ZM45.5,50,57.25,70.59h5.47L50,48.27A27.29,27.29,0,0,1,45.5,50Zm65.78-.54v2.37h-7l-3.34-9.39c-1.45-4.07-2.86-5.18-5.08-5.18H92.69V49.1l3.39.39v2.37H84.85V49.48l3.39-.39V21.32l-3.39-.44V18.51H97.53c6.34,0,10.31,2.9,10.31,9.2,0,5.08-2.81,7.84-7.5,8.47v.1c2,.44,4,2.18,5.18,5.52l2.66,7.31ZM97.34,34.43c4.45,0,5.86-2.52,5.86-6.68,0-3.87-1.45-6.39-5.86-6.39H92.69V34.43Zm15.44,5.27c0-9.19,3.92-12.73,9.63-12.73s9.1,3.1,9.1,11.86v1.55H117.08c.1,6.82,1.69,9.29,6.19,9.29a10.65,10.65,0,0,0,6.44-2.08l1.4,2a12.13,12.13,0,0,1-8.37,2.86C116.41,52.48,112.78,48.81,112.78,39.71Zm4.36-1.94h10c0-5.66-.82-8.18-4.79-8.18C119,29.59,117.47,31.87,117.13,37.77Zm24.63-7.36a10,10,0,0,1,7-3.44c4.65,0,8.37,2.66,8.37,12.63,0,9.1-3.68,12.88-8.91,12.88A8.08,8.08,0,0,1,142,49.77v9.29l3.19.39v2.13H134.65V59.45l3.19-.39V30.9l-3.19-.58V27.61h6.44Zm10.89,9.49c0-7.21-.87-9.83-4.65-9.83a8.54,8.54,0,0,0-6,2.71V46.92a8.82,8.82,0,0,0,5.61,2.61C151.54,49.53,152.66,46.68,152.66,39.9Zm33.78,9.58v2.37h-7l-3.34-9.39c-1.45-4.07-2.85-5.18-5.08-5.18h-3.14V49.1l3.39.39v2.37H160V49.48l3.39-.39V21.32L160,20.88V18.51h12.68c6.34,0,10.31,2.9,10.31,9.2,0,5.08-2.81,7.84-7.5,8.47v.1c2,.44,4,2.18,5.18,5.52l2.66,7.31ZM172.5,34.43c4.45,0,5.86-2.52,5.86-6.68,0-3.87-1.45-6.39-5.86-6.39h-4.64V34.43Zm26.42,15.15v2.27H188.37V49.58l3.19-.39V30.9l-3.19-.58V27.61h7.36V49.19ZM190.4,20.15a2.93,2.93,0,1,1,2.86,3A2.85,2.85,0,0,1,190.4,20.15ZM201.58,50.6V45h3l.77,4a7,7,0,0,0,3.73.77c3.39,0,4.69-1.4,4.69-4.07s-1.45-3.63-5-4.6c-3.73-1-6.78-2.71-6.78-7.5,0-3.48,2.42-6.63,7.74-6.63a14.82,14.82,0,0,1,7,1.5V34h-2.85L213,30.22a7.13,7.13,0,0,0-3.1-.53c-2.71,0-4.21,1.31-4.21,3.53s1.35,3.24,4.69,4.16c3.73,1,7.26,2.37,7.26,8,0,4.74-3.39,7.11-8.71,7.11A13.52,13.52,0,0,1,201.58,50.6Zm26.47-1.4,3.19.39v2.27H220.7V49.58l3.19-.39V19.86l-3.19-.58V16.82h7.36Zm7.55-18.63-2.9-.34V27.61h9.39v2.71l-3.1.39-6.24,7.11L240.4,49.1l2.91.39v2.37h-5.76l-9-13.31Z" fill="#565a5c"/></svg>